<svg width="493" height="170" viewBox="0 0 493 170" fill="none" xmlns="http://www.w3.org/2000/svg">
<rect x="386.5" y="2.5" width="104" height="60" rx="30" fill="#FFECD0" stroke="#FFC702" stroke-width="5"/>
<path d="M425.655 50V43.1253L438.786 32.2632C439.657 31.5413 440.401 30.8653 441.02 30.2351C441.65 29.5935 442.132 28.9346 442.464 28.2586C442.808 27.5826 442.979 26.8321 442.979 26.0072C442.979 25.102 442.785 24.3286 442.395 23.6869C442.017 23.0453 441.49 22.5526 440.814 22.2089C440.138 21.8537 439.359 21.6761 438.477 21.6761C437.594 21.6761 436.815 21.8537 436.139 22.2089C435.475 22.5641 434.959 23.0854 434.592 23.7729C434.226 24.4603 434.042 25.2968 434.042 26.2821H424.968C424.968 23.8072 425.523 21.6761 426.635 19.8886C427.746 18.1012 429.316 16.7263 431.344 15.7638C433.372 14.8013 435.75 14.3201 438.477 14.3201C441.295 14.3201 443.736 14.7727 445.798 15.6779C447.872 16.5716 449.47 17.8319 450.593 19.459C451.728 21.086 452.295 22.9937 452.295 25.1822C452.295 26.5342 452.014 27.8805 451.453 29.2211C450.891 30.5502 449.883 32.0226 448.428 33.6381C446.973 35.2537 444.904 37.1786 442.223 39.4129L438.923 42.1628V42.369H452.673V50H425.655Z" fill="#FFC702"/>
<path d="M22.3645 40H110.886C113.924 40 116.844 41.176 119.033 43.2814L130.699 54.4969C133.004 56.7133 134.307 59.7731 134.307 62.971V86.5989L147.518 96.1252C153.804 100.659 154.06 109.929 148.033 114.802L134.307 125.899V147.056C134.307 150.386 132.895 153.559 130.422 155.788L118.975 166.106C116.816 168.052 114.012 169.13 111.104 169.13H22.1422C19.0885 169.13 16.1546 167.941 13.9615 165.816L3.57474 155.751C1.28979 153.536 0 150.49 0 147.309V62.7215C0 59.6712 1.18572 56.7402 3.30668 54.5479L13.9157 43.5818C16.1304 41.2925 19.1793 40 22.3645 40Z" fill="#7389FF"/>
<path d="M64.1546 136H40.7481V75.1669H63.917C70.1746 75.1669 75.5806 76.3848 80.1352 78.8205C84.7096 81.2364 88.2344 84.7216 90.7097 89.2761C93.2048 93.8109 94.4524 99.2467 94.4524 105.583C94.4524 111.92 93.2147 117.366 90.7394 121.92C88.2641 126.455 84.7591 129.94 80.2243 132.376C75.6895 134.792 70.333 136 64.1546 136ZM57.2634 121.98H63.5606C66.5705 121.98 69.1349 121.495 71.2538 120.524C73.3925 119.554 75.0163 117.881 76.1252 115.504C77.2539 113.128 77.8183 109.821 77.8183 105.583C77.8183 101.346 77.244 98.0387 76.0955 95.6624C74.9668 93.2861 73.3034 91.6128 71.1053 90.6425C68.927 89.6722 66.2537 89.187 63.0853 89.187H57.2634V121.98Z" fill="white"/>
<path d="M161.329 40H250.386C253.424 40 256.344 41.176 258.533 43.2814L270.199 54.4969C272.504 56.7133 273.807 59.7731 273.807 62.971V86.5989L287.018 96.1252C293.304 100.659 293.56 109.929 287.533 114.802L273.807 125.899V147.056C273.807 150.386 272.395 153.559 269.922 155.788L258.475 166.106C256.316 168.052 253.512 169.13 250.604 169.13H161.272C158.44 169.13 155.703 168.107 153.565 166.251L140.048 154.515C137.477 152.282 136 149.044 136 145.638V132.304C136 128.821 137.545 125.517 140.218 123.284L150.602 114.606C156.26 109.879 156.22 101.17 150.519 96.4953L140.802 88.5273C138.079 86.2944 136.5 82.9585 136.5 79.4372V63.3016C136.5 59.9307 137.947 56.722 140.474 54.4905L153.547 42.9444C155.695 41.0471 158.463 40 161.329 40Z" fill="#7389FF"/>
<path d="M218.239 75.1669H234.754V114.138C234.754 118.772 233.645 122.782 231.428 126.168C229.229 129.535 226.16 132.139 222.219 133.98C218.279 135.802 213.704 136.713 208.496 136.713C203.249 136.713 198.654 135.802 194.714 133.98C190.773 132.139 187.704 129.535 185.506 126.168C183.327 122.782 182.238 118.772 182.238 114.138V75.1669H198.753V112.712C198.753 114.594 199.169 116.277 200.001 117.762C200.833 119.227 201.981 120.376 203.447 121.208C204.932 122.039 206.615 122.455 208.496 122.455C210.397 122.455 212.081 122.039 213.546 121.208C215.011 120.376 216.16 119.227 216.992 117.762C217.823 116.277 218.239 114.594 218.239 112.712V75.1669Z" fill="white"/>
<path d="M300.329 40H389.386C392.424 40 395.344 41.176 397.533 43.2814L409.199 54.4969C411.504 56.7133 412.807 59.7731 412.807 62.971V86.5989L426.018 96.1252C432.304 100.659 432.56 109.929 426.533 114.802L412.807 125.899V147.056C412.807 150.386 411.395 153.559 408.922 155.788L397.475 166.106C395.316 168.052 392.512 169.13 389.604 169.13H300.272C297.44 169.13 294.703 168.107 292.565 166.251L279.048 154.515C276.477 152.282 275 149.044 275 145.638V132.304C275 128.821 276.545 125.517 279.218 123.284L289.602 114.606C295.26 109.879 295.22 101.17 289.519 96.4953L279.802 88.5273C277.079 86.2944 275.5 82.9585 275.5 79.4372V63.3016C275.5 59.9307 276.947 56.722 279.474 54.4905L292.547 42.9444C294.695 41.0471 297.463 40 300.329 40Z" fill="#7389FF"/>
<path d="M321.045 88.4741V75.1669H373.918V88.4741H355.62V136H339.343V88.4741H321.045Z" fill="white"/>
</svg>
